<svg width="14" height="14" viewBox="0 0 14 14" fill="none" xmlns="http://www.w3.org/2000/svg">
<path d="M6.99967 13.6654C3.31767 13.6654 0.333008 10.6807 0.333008 6.9987C0.333008 3.3167 3.31767 0.332031 6.99967 0.332031C10.6817 0.332031 13.6663 3.3167 13.6663 6.9987C13.6663 10.6807 10.6817 13.6654 6.99967 13.6654ZM6.99967 12.332C8.41416 12.332 9.77072 11.7701 10.7709 10.7699C11.7711 9.76974 12.333 8.41319 12.333 6.9987C12.333 5.58421 11.7711 4.22766 10.7709 3.22746C9.77072 2.22727 8.41416 1.66536 6.99967 1.66536C5.58519 1.66536 4.22863 2.22727 3.22844 3.22746C2.22824 4.22766 1.66634 5.58421 1.66634 6.9987C1.66634 8.41319 2.22824 9.76974 3.22844 10.7699C4.22863 11.7701 5.58519 12.332 6.99967 12.332ZM6.33501 9.66537L3.50634 6.8367L4.44901 5.89403L6.33501 7.78003L10.1057 4.0087L11.049 4.95136L6.33501 9.66537Z" fill="white"/>
</svg>
