<svg width="40" height="40" viewBox="0 0 40 40" fill="none" xmlns="http://www.w3.org/2000/svg">
<rect width="40" height="40" rx="10" fill="#44597D"/>
<g clip-path="url(#clip0_793_2319)">
<path d="M21 27.938C23.0173 27.6813 24.8611 26.6661 26.1568 25.0988C27.4525 23.5314 28.1027 21.5295 27.9754 19.5C27.848 17.4704 26.9527 15.5655 25.4713 14.1724C23.9898 12.7793 22.0336 12.0025 20 12C17.964 11.9985 16.0039 12.7733 14.5193 14.1667C13.0347 15.56 12.1372 17.467 12.0097 19.499C11.8822 21.5311 12.5343 23.5353 13.8331 25.1033C15.132 26.6712 16.9797 27.685 19 27.938V22H17V20H19V18.346C19 17.009 19.14 16.524 19.4 16.035C19.6561 15.5512 20.052 15.1557 20.536 14.9C20.918 14.695 21.393 14.572 22.223 14.519C22.552 14.498 22.978 14.524 23.501 14.599V16.499H23C22.083 16.499 21.704 16.542 21.478 16.663C21.3431 16.7324 21.2334 16.8421 21.164 16.977C21.044 17.203 21 17.427 21 18.345V20H23.5L23 22H21V27.938ZM20 30C14.477 30 10 25.523 10 20C10 14.477 14.477 10 20 10C25.523 10 30 14.477 30 20C30 25.523 25.523 30 20 30Z" fill="white"/>
</g>
<defs>
<clipPath id="clip0_793_2319">
<rect width="24" height="24" fill="white" transform="translate(8 8)"/>
</clipPath>
</defs>
</svg>
