<svg width="40" height="40" viewBox="0 0 40 40" fill="none" xmlns="http://www.w3.org/2000/svg">
<rect width="40" height="40" rx="10" fill="#44597D"/>
<g clip-path="url(#clip0_643_407)">
<path d="M23.2995 13.5482C22.5395 13.548 21.8098 13.8463 21.2674 14.3787C20.7251 14.9112 20.4134 15.6353 20.3995 16.3952L20.3715 17.9702C20.3699 18.0547 20.3504 18.138 20.3143 18.2145C20.2782 18.291 20.2264 18.359 20.1622 18.414C20.098 18.4691 20.0228 18.5099 19.9417 18.5339C19.8606 18.5579 19.7754 18.5645 19.6915 18.5532L18.1305 18.3412C16.0765 18.0612 14.1085 17.1152 12.2205 15.5422C11.6225 18.8522 12.7905 21.1452 15.6035 22.9142L17.3505 24.0122C17.4335 24.0643 17.5025 24.136 17.5514 24.221C17.6003 24.306 17.6276 24.4017 17.6309 24.4996C17.6343 24.5976 17.6136 24.6949 17.5706 24.7831C17.5277 24.8712 17.4638 24.9474 17.3845 25.0052L15.7925 26.1682C16.7395 26.2272 17.6385 26.1852 18.3845 26.0372C23.1025 25.0952 26.2395 21.5452 26.2395 15.6892C26.2395 15.2112 25.2275 13.5482 23.2995 13.5482ZM18.3995 16.3582C18.417 15.3942 18.7184 14.4568 19.2661 13.6634C19.8138 12.8699 20.5833 12.2557 21.4784 11.8975C22.3736 11.5394 23.3544 11.4532 24.2983 11.6499C25.2421 11.8466 26.107 12.3173 26.7845 13.0032C27.4955 12.9982 28.1005 13.1782 29.4535 12.3582C29.1185 13.9982 28.9535 14.7102 28.2395 15.6892C28.2395 23.3312 23.5425 27.0472 18.7765 27.9982C15.5085 28.6502 10.7565 27.5792 9.39453 26.1572C10.0885 26.1032 12.9085 25.8002 14.5385 24.6072C13.1595 23.6982 7.67053 20.4682 11.2775 11.7842C12.9705 13.7612 14.6875 15.1072 16.4275 15.8212C17.5855 16.2962 17.8695 16.2862 18.4005 16.3592L18.3995 16.3582Z" fill="white"/>
</g>
<defs>
<clipPath id="clip0_643_407">
<rect width="24" height="24" fill="white" transform="translate(8 8)"/>
</clipPath>
</defs>
</svg>
