<svg width="40" height="40" viewBox="0 0 40 40" fill="none" xmlns="http://www.w3.org/2000/svg">
<rect width="40" height="40" rx="10" fill="#44597D"/>
<path fill-rule="evenodd" clip-rule="evenodd" d="M30.7203 14.1875C30.8872 13.6587 30.7203 13.2744 29.982 13.2744H27.5272C26.908 13.2744 26.622 13.6109 26.4552 13.9709C26.4552 13.9709 25.1923 17.0459 23.4289 19.0395C22.857 19.6161 22.595 19.8083 22.2852 19.8083C22.1183 19.8083 21.9036 19.6161 21.9036 19.0878V14.1627C21.9036 13.5383 21.7133 13.25 21.1887 13.25H17.3281C16.9466 13.25 16.7084 13.5383 16.7084 13.8266C16.7084 14.427 17.5902 14.5714 17.6853 16.2528V19.9062C17.6853 20.6989 17.5447 20.8438 17.2325 20.8438C16.3986 20.8438 14.3731 17.7448 13.1581 14.2137C12.9219 13.5144 12.6819 13.25 12.0622 13.25H9.58391C8.86906 13.25 8.75 13.5861 8.75 13.9466C8.75 14.5953 9.58391 17.862 12.6341 22.1858C14.6595 25.1389 17.5428 26.7261 20.1402 26.7261C21.7133 26.7261 21.9036 26.3656 21.9036 25.7652V23.5311C21.9036 22.8106 22.0466 22.6906 22.5472 22.6906C22.9044 22.6906 23.548 22.8823 25.0016 24.2998C26.6694 25.9813 26.9553 26.75 27.8848 26.75H30.3392C31.0541 26.75 31.3878 26.3895 31.197 25.693C30.9828 24.9964 30.1723 23.9877 29.1238 22.7867C28.5519 22.1145 27.6941 21.3697 27.432 21.0092C27.0748 20.5287 27.17 20.3366 27.432 19.9044C27.4081 19.9044 30.4109 15.6284 30.7203 14.1856" fill="#F8F8F9"/>
</svg>
